# xmcd
#
# Track frame offsets:
#	150
#	46005
#	97490
#	139967
#	165087
#	195690
#	238105
#	256705
#	277015
#
# Disc length: 4177 seconds
#
# Revision: 1
# Processed by: cddbd v1.5.1PL0 Copyright (c) Steve Scherf et al.
# Submitted via: CDex 1.50Beta5
#
DISCID=7b104f09
DTITLE=小沢 征爾 - Beethoven
DYEAR=1900
DGENRE=Classical
TTITLE0=レオノーレ序曲
TTITLE1=第4番 第1楽章
TTITLE2=第4番 第2楽章
TTITLE3=第4番 第3楽章
TTITLE4=第4番 第4楽章
TTITLE5=第8番 第1楽章
TTITLE6=第8番 第2楽章
TTITLE7=第8番 第3楽章
TTITLE8=第8番 第4楽章
EXTD=
EXTT0=
EXTT1=
EXTT2=
EXTT3=
EXTT4=
EXTT5=
EXTT6=
EXTT7=
EXTT8=
PLAYORDER=
